<?xml version="1.0" encoding="UTF-8"?>
<svg id="_レイヤー_2" data-name="レイヤー 2" xmlns="http://www.w3.org/2000/svg" viewBox="0 0 108 108">
  <g id="_レイヤー_1-2" data-name="レイヤー 1">
    <g>
      <path d="M71.02,6c17.08,0,30.98,13.9,30.98,30.98v34.04c0,17.08-13.9,30.98-30.98,30.98h-34.04c-17.08,0-30.98-13.9-30.98-30.98v-34.04c0-17.08,13.9-30.98,30.98-30.98h34.04M71.02,0h-34.04C16.56,0,0,16.56,0,36.98v34.04c0,20.42,16.56,36.98,36.98,36.98h34.04c20.42,0,36.98-16.56,36.98-36.98v-34.04C108,16.56,91.44,0,71.02,0h0Z"/>
      <path d="M54,34.5c10.75,0,19.5,8.75,19.5,19.5s-8.75,19.5-19.5,19.5-19.5-8.75-19.5-19.5,8.75-19.5,19.5-19.5M54,28.5c-14.08,0-25.5,11.42-25.5,25.5s11.42,25.5,25.5,25.5,25.5-11.42,25.5-25.5-11.42-25.5-25.5-25.5h0Z"/>
      <circle cx="82.75" cy="26.75" r="6.5"/>
    </g>
  </g>
</svg>