<?xml version="1.0" encoding="UTF-8"?>
<svg id="_レイヤー_2" data-name="レイヤー 2" xmlns="http://www.w3.org/2000/svg" viewBox="0 0 119.36 116.98">
  <g id="_レイヤー_1-2" data-name="レイヤー 1">
    <path d="M70.77,86.12c19.8-.93,29.59-13.94,26.91-33.42-.67-4.91-5.36-9.78-5.64-12.2-.44-3.83,1.85-10.53-.32-15.34-5.57-2.51-14.13,5.66-17.4,5.85-2.39.14-7.5-1.74-11.02-1.94-5.5-.32-16.04,2.24-18.91,1.76-1.43-.24-6.26-3.9-9.09-4.76-5.74-1.75-7.61-2.69-8.43,3.66-.48,3.69.84,9.25.36,11.52-.58,2.72-4.71,6.45-5.39,11.46-2.74,20.12,7.19,31.7,26.91,33.91-4.84,5.2-1.34,9.66-10.51,9.3-10.6-.42-10.91-13.9-21.97-12.8-1.98,3.05,3.29,4.65,5.48,7.51,3.24,4.24,3.29,9.47,9.29,11.71,4.35,1.63,9.23.45,13.72.78.86,15.03-.5,16.59-13.33,9.83C-31.05,80.05,7.45-18.57,78.31,3.07c55.19,16.86,54.55,98.06-.83,113.91-1.58-.63-2.36-1.76-2.68-3.4-1.65-8.63,3.06-19.78-4.03-27.46Z"/>
  </g>
</svg>