<?xml version="1.0" encoding="UTF-8"?>
<svg id="_レイヤー_2" data-name="レイヤー 2" xmlns="http://www.w3.org/2000/svg" viewBox="0 0 141 141">
  <g id="_レイヤー_1-2" data-name="レイヤー 1">
    <g>
      <path d="M70.5,3c37.22,0,67.5,30.28,67.5,67.5s-30.28,67.5-67.5,67.5S3,107.72,3,70.5,33.28,3,70.5,3M70.5,0h0C31.56,0,0,31.56,0,70.5h0c0,38.94,31.56,70.5,70.5,70.5h0c38.94,0,70.5-31.56,70.5-70.5h0C141,31.56,109.44,0,70.5,0h0Z"/>
      <path d="M55.65,129.67c4.76,1.19,9.73,1.83,14.85,1.83,7.65,0,14.96-1.42,21.7-3.99l-19.95-52.26-16.6,54.42Z"/>
      <path d="M43.58,41.76h-8.4l21.07,65.49,13.2-37.75-9.2-27.25h-8l.06-6h36.61v5.51h-8.67l21.52,65.49s10.48-32,10.48-42-10.76-21.76-10.87-29c-.12-8.08,5.01-10.59,10.85-10.22-10.91-10.24-25.58-16.53-41.73-16.53-20.99,0-39.5,10.61-50.48,26.75h23.56v5.51Z"/>
      <path d="M9.5,70.5c0,24.48,14.42,45.58,35.23,55.29L16.35,42.42c-4.37,8.41-6.85,17.95-6.85,28.08Z"/>
      <path d="M131.5,70.5c0-9.73-2.29-18.93-6.34-27.09.06.91.09,1.85.09,2.84,0,8.48-14.47,54.07-21.94,75.66,16.95-10.84,28.19-29.81,28.19-51.41Z"/>
    </g>
  </g>
</svg>