<?xml version="1.0" encoding="UTF-8"?>
<svg id="_レイヤー_2" data-name="レイヤー 2" xmlns="http://www.w3.org/2000/svg" viewBox="0 0 141 141">
  <g id="_レイヤー_1-2" data-name="レイヤー 1">
    <g>
      <path d="M132.16,5c2.12,0,3.84,1.72,3.84,3.84v123.31c0,2.12-1.72,3.84-3.84,3.84H8.84c-2.12,0-3.84-1.72-3.84-3.84V8.84c0-2.12,1.72-3.84,3.84-3.84h123.31M132.16,0H8.84C3.96,0,0,3.96,0,8.84v123.31c0,4.88,3.96,8.84,8.84,8.84h123.31c4.88,0,8.84-3.96,8.84-8.84V8.84c0-4.88-3.96-8.84-8.84-8.84h0Z"/>
      <g>
        <path d="M79.79,82.81h9.56v32.76c0,4.59-1.28,8.28-3.84,11.05-2.56,2.77-5.85,4.16-9.88,4.16-4.33,0-7.7-1.29-10.11-3.87-2.41-2.58-3.61-6.17-3.61-10.76h9.59c0,4.46,1.38,6.7,4.13,6.7s4.16-2.58,4.16-7.74v-32.31Z"/>
        <path d="M116.84,117.73c0-1.93-.49-3.39-1.48-4.37-.99-.99-2.78-2.01-5.38-3.07-4.75-1.8-8.16-3.91-10.24-6.32-2.08-2.42-3.12-5.27-3.12-8.57,0-3.99,1.41-7.19,4.24-9.6,2.83-2.42,6.42-3.62,10.78-3.62,2.9,0,5.49.61,7.77,1.84,2.27,1.22,4.02,2.95,5.25,5.18,1.22,2.23,1.84,4.77,1.84,7.61h-9.52c0-2.21-.47-3.9-1.41-5.05-.94-1.16-2.3-1.74-4.08-1.74-1.67,0-2.97.49-3.9,1.48-.93.99-1.4,2.31-1.4,3.98,0,1.3.52,2.48,1.56,3.53,1.04,1.05,2.88,2.14,5.53,3.27,4.62,1.67,7.97,3.72,10.06,6.14,2.09,2.43,3.14,5.52,3.14,9.26,0,4.12-1.31,7.34-3.93,9.65-2.62,2.32-6.19,3.48-10.69,3.48-3.06,0-5.84-.63-8.35-1.89-2.51-1.26-4.48-3.06-5.9-5.4-1.42-2.34-2.13-5.1-2.13-8.29h9.59c0,2.73.53,4.71,1.59,5.95,1.06,1.23,2.8,1.85,5.2,1.85,3.34,0,5.01-1.77,5.01-5.3Z"/>
      </g>
    </g>
  </g>
</svg>