<?xml version="1.0" encoding="UTF-8"?>
<svg id="_レイヤー_2" data-name="レイヤー 2" xmlns="http://www.w3.org/2000/svg" viewBox="0 0 141 141">
  <g id="_レイヤー_1-2" data-name="レイヤー 1">
    <polygon points="55.15 80.37 66.98 80.37 61.06 56.31 55.15 80.37"/>
    <path d="M132.16,0H8.84C3.96,0,0,3.96,0,8.84v123.31c0,4.88,3.96,8.84,8.84,8.84h123.31c4.88,0,8.84-3.96,8.84-8.84V8.84c0-4.88-3.96-8.84-8.84-8.84ZM73.2,105.55l-3.39-13.81h-17.44l-3.39,13.81h-13.52l19.78-67.49h11.7l19.91,67.49h-13.65ZM105.07,105.55h-12.35v-50.16h12.35v50.16ZM103.74,47.41c-1.2,1.33-2.83,1.99-4.89,1.99s-3.69-.66-4.89-1.99c-1.2-1.33-1.8-3-1.8-5.01s.61-3.71,1.83-5.01,2.84-1.95,4.87-1.95,3.65.65,4.87,1.95,1.83,2.97,1.83,5.01-.6,3.68-1.8,5.01Z"/>
  </g>
</svg>