<?xml version="1.0" encoding="UTF-8"?>
<svg id="_レイヤー_2" data-name="レイヤー 2" xmlns="http://www.w3.org/2000/svg" viewBox="0 0 141 141">
  <defs>
    <style>
      .cls-1 {
        fill: none;
      }
    </style>
  </defs>
  <g id="_レイヤー_1-2" data-name="レイヤー 1">
    <g>
      <rect class="cls-1" y="0" width="141" height="141" rx="8.84" ry="8.84"/>
      <path d="M34.67.6H1.55l5.74,67.65,27.38,7.63,27.38-7.63L67.79.6h-33.12ZM53.63,23.03h-30.54v8.43h29.49l-2.11,25.28-17.38,5.15-17.38-5.15v-10.53h8.43v3.16l8.95,2.92,10.48-2.92,1.05-9.48H15.71l-1.05-25.28h40.02l-1.05,8.43Z"/>
      <path d="M107.31,65.72h-33.12l5.74,67.65,27.38,7.63,27.38-7.63,5.74-67.65h-33.12ZM124.64,119.68l-17.9,6.32-15.8-6.21v-10.81h8.43v5.44l7.37,2.11,9.48-3.16v-8.43h-18.96v-8.43h20.01v-7.37h-28.43v-8.43h36.94l-1.13,38.97Z"/>
    </g>
  </g>
</svg>