<?xml version="1.0" encoding="UTF-8"?>
<svg id="_レイヤー_2" data-name="レイヤー 2" xmlns="http://www.w3.org/2000/svg" viewBox="0 0 141 141">
  <g id="_レイヤー_1-2" data-name="レイヤー 1">
    <g>
      <path d="M51.21,48.21h-8.72v20.52h8.59c2.38,0,4.22-.83,5.53-2.49,1.3-1.66,1.96-4.07,1.96-7.23s-.67-5.9-2-7.84c-1.33-1.94-3.12-2.93-5.36-2.96Z"/>
      <path d="M132.16,0H8.84C3.96,0,0,3.96,0,8.84v123.31c0,4.88,3.96,8.84,8.84,8.84h123.31c4.88,0,8.84-3.96,8.84-8.84V8.84c0-4.88-3.96-8.84-8.84-8.84ZM65.8,74.21c-3.6,3.74-8.59,5.61-14.97,5.61h-8.34v23.14h-12.5V37.14h21.09c6.12,0,11.01,2.02,14.65,6.06,3.64,4.04,5.46,9.28,5.46,15.73s-1.8,11.54-5.4,15.28ZM106.37,99.88c-3.09,2.65-7.14,3.98-12.16,3.98-3.37,0-6.35-.7-8.93-2.1-2.58-1.4-4.6-3.35-6.06-5.85-1.46-2.5-2.19-5.2-2.19-8.09h11.44c.06,2.23.55,3.9,1.47,5.02.92,1.12,2.43,1.67,4.53,1.67,3.23,0,4.85-1.55,4.85-4.66,0-1.08-.49-2.09-1.47-3.01-.98-.92-3.15-2.16-6.53-3.73-4.96-2.14-8.37-4.35-10.23-6.65-1.86-2.29-2.79-5.14-2.79-8.54,0-4.28,1.45-7.81,4.36-10.6,2.91-2.79,6.75-4.18,11.55-4.18,5.05,0,9.09,1.39,12.12,4.16,3.03,2.77,4.55,6.49,4.55,11.17h-12.04c0-3.98-1.56-5.97-4.68-5.97-1.28,0-2.33.42-3.15,1.27-.82.84-1.23,2.02-1.23,3.53,0,1.08.45,2.04,1.36,2.87.91.83,3.05,2.01,6.42,3.55,4.9,1.93,8.37,4.08,10.4,6.44,2.03,2.37,3.04,5.43,3.04,9.2,0,4.37-1.55,7.88-4.64,10.53Z"/>
    </g>
  </g>
</svg>