<?xml version="1.0" encoding="UTF-8"?>
<svg id="_レイヤー_2" data-name="レイヤー 2" xmlns="http://www.w3.org/2000/svg" viewBox="0 0 136 206">
  <defs>
    <style>
      .cls-1 {
        fill: #efe6e6;
      }

      .cls-2 {
        fill: #222;
      }
    </style>
  </defs>
  <g id="_レイヤー_1-2" data-name="レイヤー 1">
    <g>
      <rect class="cls-2" width="136" height="206"/>
      <g>
        <path class="cls-1" d="M42.78,20.88h1.66v15.24h-1.66v-15.24Z"/>
        <path class="cls-1" d="M56.26,36.12h-2.04l-3.76-5.38-1,1.14v4.24h-1.66v-16h1.66v10.18h.04c.26-.38.64-.86.94-1.22l3.26-3.86h2l-4.1,4.5,4.66,6.4Z"/>
        <path class="cls-1" d="M66.28,33.22c0,1.12.06,2.06.1,2.9h-1.5l-.08-1.72h-.06c-.5.86-1.62,1.96-3.48,1.96-1.64,0-3.58-.94-3.58-4.7v-6.44h1.66v6.14c0,2.12.62,3.6,2.44,3.6,1.3,0,2.84-1.04,2.84-2.96v-6.78h1.66v8Z"/>
        <path class="cls-1" d="M84.4,36.12h-1.64v-6.3c0-2.12-.76-3.48-2.4-3.48-1.34,0-2.56,1.26-2.56,2.92v6.86h-1.64v-6.72c0-1.74-.74-3.06-2.28-3.06-1.42,0-2.68,1.4-2.68,3.1v6.68h-1.64v-8.1c0-1.12-.04-1.92-.08-2.82h1.46l.1,1.76h.06c.6-1.06,1.6-2,3.32-2,1.42,0,2.52.88,2.98,2.18h.04c.72-1.3,1.82-2.18,3.5-2.18,1.34,0,3.46.86,3.46,4.6v6.56Z"/>
        <path class="cls-1" d="M88.44,23.3c-.64,0-1.08-.5-1.08-1.14s.46-1.12,1.1-1.12,1.08.5,1.08,1.12c0,.7-.46,1.14-1.1,1.14ZM89.28,36.12h-1.66v-10.9h1.66v10.9Z"/>
        <path class="cls-1" d="M47.82,74.88c-.4-.26-1.14-.64-2.12-.64-1.2,0-1.84.74-1.84,1.62,0,.94.62,1.38,2.02,1.98,1.76.72,2.78,1.64,2.78,3.28,0,1.94-1.48,3.22-3.86,3.22-1.08,0-2.12-.3-2.86-.74l.46-1.28c.58.34,1.52.74,2.46.74,1.46,0,2.18-.78,2.18-1.76s-.58-1.58-2.02-2.16c-1.84-.74-2.78-1.76-2.78-3.08,0-1.7,1.36-3.1,3.56-3.1,1.04,0,1.92.3,2.5.66l-.48,1.26Z"/>
        <path class="cls-1" d="M58.34,81.52c0,.9.02,1.84.16,2.6h-1.52l-.16-1.4h-.06c-.56.86-1.68,1.64-3.22,1.64-2.08,0-3.18-1.52-3.18-3.1,0-2.62,2.28-4.04,6.32-4.02,0-.92,0-3-2.48-3-.94,0-1.92.26-2.66.78l-.4-1.14c.88-.58,2.1-.92,3.32-.92,3.08,0,3.88,2.18,3.88,4.34v4.22ZM56.7,78.46c-2.06,0-4.64.3-4.64,2.6,0,1.4.88,2.02,1.88,2.02,1.62,0,2.76-1.24,2.76-2.56v-2.06Z"/>
        <path class="cls-1" d="M61.98,71.24l1.64-.56v2.54h2.82v1.3h-2.82v6.3c0,1.38.42,2.14,1.48,2.14.5,0,.84-.06,1.12-.16l.1,1.28c-.36.16-.92.26-1.62.26-2.64,0-2.72-2.4-2.72-3.56v-6.26h-1.68v-1.3h1.68v-1.98Z"/>
        <path class="cls-1" d="M77.88,78.58c0,4.06-2.68,5.78-5.1,5.78-2.8,0-4.96-2.1-4.96-5.62,0-3.72,2.32-5.78,5.1-5.78,2.98,0,4.96,2.28,4.96,5.62ZM72.86,74.26c-2.36,0-3.34,2.32-3.34,4.42,0,2.42,1.34,4.38,3.3,4.38s3.36-1.96,3.36-4.42c0-1.94-.94-4.38-3.32-4.38Z"/>
      </g>
    </g>
  </g>
</svg>